<svg xmlns="http://www.w3.org/2000/svg" viewBox="0 0 375 812">
  <!-- 手机外框 -->
  <rect width="375" height="812" rx="25" fill="#000" stroke="#333" stroke-width="2"/>
  
  <!-- 屏幕区域 -->
  <rect x="10" y="10" width="355" height="792" rx="20" fill="#f5f5f5"/>
  
  <!-- 状态栏 -->
  <rect x="10" y="10" width="355" height="44" rx="20" fill="#4A90E2"/>
  <text x="30" y="35" fill="white" font-size="14" font-family="Arial">20:56</text>
  <text x="320" y="35" fill="white" font-size="12" font-family="Arial">100%</text>
  <rect x="330" y="25" width="20" height="10" rx="2" fill="white"/>
  
  <!-- 标题栏 -->
  <rect x="10" y="54" width="355" height="50" fill="#4A90E2"/>
  <text x="187" y="85" fill="white" font-size="16" font-family="Arial" text-anchor="middle">徐桥嘉苑户型查看</text>
  <circle cx="340" cy="79" r="15" fill="rgba(255,255,255,0.2)"/>
  <circle cx="310" cy="79" r="8" fill="white"/>
  
  <!-- 主要内容卡片 -->
  <rect x="30" y="130" width="315" height="150" rx="15" fill="linear-gradient(135deg, #667eea 0%, #764ba2 100%)"/>
  <text x="187" y="160" fill="white" font-size="14" font-family="Arial" text-anchor="middle">安置房项目</text>
  <text x="187" y="190" fill="white" font-size="24" font-family="Arial" text-anchor="middle" font-weight="bold">徐桥嘉苑（南苑）</text>
  
  <!-- 统计信息 -->
  <g transform="translate(80, 220)">
    <text x="0" y="0" fill="white" font-size="28" font-family="Arial" font-weight="bold">10</text>
    <text x="0" y="20" fill="rgba(255,255,255,0.8)" font-size="12" font-family="Arial">栋楼宇</text>
  </g>
  
  <g transform="translate(150, 220)">
    <text x="0" y="0" fill="white" font-size="28" font-family="Arial" font-weight="bold">多种</text>
    <text x="0" y="20" fill="rgba(255,255,255,0.8)" font-size="12" font-family="Arial">户型</text>
  </g>
  
  <g transform="translate(220, 220)">
    <text x="0" y="0" fill="white" font-size="28" font-family="Arial" font-weight="bold">高清</text>
    <text x="0" y="20" fill="rgba(255,255,255,0.8)" font-size="12" font-family="Arial">图纸</text>
  </g>
  
  <!-- 小区接待布局 -->
  <rect x="30" y="310" width="315" height="60" rx="10" fill="white" stroke="#e0e0e0"/>
  <rect x="50" y="325" width="30" height="30" rx="8" fill="#4A90E2"/>
  <rect x="55" y="330" width="20" height="20" rx="4" fill="white"/>
  <text x="100" y="350" fill="#333" font-size="16" font-family="Arial">小区接待布局</text>
  
  <!-- 小区平面图 -->
  <rect x="30" y="390" width="315" height="200" rx="10" fill="white" stroke="#e0e0e0"/>
  
  <!-- 模拟建筑布局 -->
  <g transform="translate(50, 410)">
    <!-- 建筑群 -->
    <rect x="20" y="20" width="60" height="40" rx="4" fill="#8B9DC3" stroke="#6B7D9B"/>
    <rect x="100" y="20" width="60" height="40" rx="4" fill="#8B9DC3" stroke="#6B7D9B"/>
    <rect x="180" y="20" width="60" height="40" rx="4" fill="#8B9DC3" stroke="#6B7D9B"/>
    <rect x="260" y="20" width="60" height="40" rx="4" fill="#8B9DC3" stroke="#6B7D9B"/>
    
    <rect x="20" y="80" width="60" height="40" rx="4" fill="#8B9DC3" stroke="#6B7D9B"/>
    <rect x="100" y="80" width="60" height="40" rx="4" fill="#8B9DC3" stroke="#6B7D9B"/>
    <rect x="180" y="80" width="60" height="40" rx="4" fill="#8B9DC3" stroke="#6B7D9B"/>
    <rect x="260" y="80" width="60" height="40" rx="4" fill="#8B9DC3" stroke="#6B7D9B"/>
    
    <rect x="60" y="140" width="60" height="40" rx="4" fill="#8B9DC3" stroke="#6B7D9B"/>
    <rect x="140" y="140" width="60" height="40" rx="4" fill="#8B9DC3" stroke="#6B7D9B"/>
    <rect x="220" y="140" width="60" height="40" rx="4" fill="#8B9DC3" stroke="#6B7D9B"/>
    
    <!-- 楼号标识 -->
    <circle cx="50" cy="30" r="8" fill="#4A90E2"/>
    <text x="50" y="35" fill="white" font-size="10" font-family="Arial" text-anchor="middle">1</text>
    
    <circle cx="130" cy="30" r="8" fill="#4A90E2"/>
    <text x="130" y="35" fill="white" font-size="10" font-family="Arial" text-anchor="middle">2</text>
    
    <circle cx="210" cy="30" r="8" fill="#4A90E2"/>
    <text x="210" y="35" fill="white" font-size="10" font-family="Arial" text-anchor="middle">3</text>
    
    <circle cx="290" cy="30" r="8" fill="#4A90E2"/>
    <text x="290" y="35" fill="white" font-size="10" font-family="Arial" text-anchor="middle">4</text>
    
    <circle cx="50" cy="90" r="8" fill="#4A90E2"/>
    <text x="50" y="95" fill="white" font-size="10" font-family="Arial" text-anchor="middle">5</text>
    
    <circle cx="130" cy="90" r="8" fill="#4A90E2"/>
    <text x="130" y="95" fill="white" font-size="10" font-family="Arial" text-anchor="middle">6</text>
    
    <circle cx="210" cy="90" r="8" fill="#4A90E2"/>
    <text x="210" y="95" fill="white" font-size="10" font-family="Arial" text-anchor="middle">7</text>
    
    <circle cx="290" cy="90" r="8" fill="#4A90E2"/>
    <text x="290" y="95" fill="white" font-size="10" font-family="Arial" text-anchor="middle">8</text>
    
    <circle cx="90" cy="150" r="8" fill="#4A90E2"/>
    <text x="90" y="155" fill="white" font-size="10" font-family="Arial" text-anchor="middle">9</text>
    
    <circle cx="170" cy="150" r="8" fill="#4A90E2"/>
    <text x="170" y="155" fill="white" font-size="10" font-family="Arial" text-anchor="middle">10</text>
  </g>
  
  <!-- 底部按钮 -->
  <rect x="50" y="620" width="120" height="40" rx="20" fill="#4A90E2"/>
  <text x="110" y="645" fill="white" font-size="14" font-family="Arial" text-anchor="middle">查看详情</text>
  
  <rect x="200" y="620" width="120" height="40" rx="20" fill="white" stroke="#4A90E2"/>
  <text x="260" y="645" fill="#4A90E2" font-size="14" font-family="Arial" text-anchor="middle">分享图片</text>
  
  <!-- 底部导航 -->
  <rect x="10" y="720" width="355" height="60" fill="white" stroke="#e0e0e0" stroke-width="1"/>
  
  <g transform="translate(60, 735)">
    <rect x="0" y="0" width="24" height="24" rx="4" fill="#4A90E2"/>
    <text x="12" y="35" fill="#4A90E2" font-size="10" font-family="Arial" text-anchor="middle">小区平面图</text>
  </g>
  
  <g transform="translate(160, 735)">
    <rect x="0" y="0" width="24" height="24" rx="4" fill="#ccc"/>
    <text x="12" y="35" fill="#666" font-size="10" font-family="Arial" text-anchor="middle">楼栋户型</text>
  </g>
  
  <g transform="translate(260, 735)">
    <rect x="0" y="0" width="24" height="24" rx="4" fill="#ccc"/>
    <text x="12" y="35" fill="#666" font-size="10" font-family="Arial" text-anchor="middle">选房通知</text>
  </g>
  
  <!-- 底部指示器 -->
  <rect x="150" y="790" width="75" height="4" rx="2" fill="#333"/>
</svg>